<?xml version="1.0" encoding="UTF-8"?>
<!-- Generated by Pixelmator Pro 4.2 -->
<svg width="1500" height="1000" viewBox="0 0 1500 1000" xmlns="http://www.w3.org/2000/svg">
    <g id="Gruppo-copia">
        <path id="Mas8" fill="#ffffff" stroke="none" d="M 1240.387573 539.964905 C 1240.387573 546.699219 1238.326416 552.58374 1234.203979 557.618774 C 1230.081543 562.653809 1224.086914 566.555908 1216.219727 569.325134 C 1208.352539 572.09436 1198.848999 573.479004 1187.709106 573.479004 C 1176.191528 573.479004 1166.074463 571.874084 1157.357544 568.664307 C 1148.640625 565.454468 1141.827881 560.954468 1136.918701 555.164246 C 1132.009521 549.374023 1129.366211 542.671265 1128.988647 535.055786 L 1146.642578 535.055786 C 1147.397705 539.901978 1149.600586 544.181641 1153.250854 547.894958 C 1156.901367 551.608276 1161.700195 554.487671 1167.647827 556.533142 C 1173.595459 558.578613 1180.313965 559.601318 1187.803467 559.601318 C 1198.817505 559.601318 1207.439941 557.933472 1213.670654 554.597778 C 1219.901489 551.262085 1223.016968 546.667725 1223.016968 540.814514 C 1223.016968 536.345947 1220.987183 533.010376 1216.927734 530.807495 C 1212.868164 528.604675 1205.363037 526.93689 1194.411865 525.804016 L 1173.925781 523.727051 C 1163.72998 522.720093 1155.57959 520.863403 1149.474731 518.157104 C 1143.369751 515.450806 1138.979858 512.052246 1136.305054 507.961273 C 1133.630249 503.870331 1132.292725 499.27597 1132.292725 494.178009 C 1132.292725 487.31781 1134.401123 481.527649 1138.618042 476.807312 C 1142.834839 472.087036 1148.71936 468.483887 1156.271851 465.997864 C 1163.824341 463.511841 1172.57251 462.26886 1182.516724 462.26886 C 1193.090332 462.26886 1202.515015 463.795044 1210.79126 466.847534 C 1219.067627 469.900024 1225.660156 474.11676 1230.569336 479.497925 C 1235.478516 484.879089 1238.184692 491.125549 1238.688232 498.237488 L 1221.034302 498.237488 C 1220.467896 494.209473 1218.611328 490.527679 1215.464355 487.191956 C 1212.317505 483.856323 1207.943481 481.181458 1202.342041 479.16748 C 1196.740601 477.153503 1189.848999 476.146484 1181.667114 476.146484 C 1171.53418 476.146484 1163.682861 477.594055 1158.112793 480.489136 C 1152.542847 483.384277 1149.757935 487.601074 1149.757935 493.139557 C 1149.757935 497.167572 1151.583008 500.37735 1155.233398 502.768951 C 1158.883789 505.160583 1165.366333 506.859894 1174.68103 507.866882 L 1198.093628 510.227051 C 1208.793091 511.296967 1217.226685 513.090698 1223.394531 515.608154 C 1229.562378 518.125671 1233.936523 521.398315 1236.516968 525.426392 C 1239.09729 529.454346 1240.387573 534.300537 1240.387573 539.964905 Z M 1080.635254 571.024414 L 1076.08313 531.769287 L 1081.16333 517.363525 L 1076.08313 503.146606 L 1080.635254 463.646545 L 1113.299683 463.646545 L 1107.068848 517.307495 L 1113.299683 571.024414 Z M 1088.922241 517.363525 C 1086.870972 528.680481 1083.161133 538.583618 1077.792725 547.073364 C 1072.424316 555.563049 1065.699463 562.15564 1057.61792 566.851379 C 1049.536255 571.547119 1040.467529 573.894958 1030.411255 573.894958 C 1019.924316 573.894958 1010.662781 571.525513 1002.626465 566.786499 C 994.590088 562.047485 988.315613 555.423401 983.802795 546.914063 C 979.289978 538.404663 977.033569 528.554626 977.033569 517.363525 C 977.033569 506.048523 979.289978 496.15863 983.802795 487.693542 C 988.315613 479.228394 994.590088 472.625977 1002.626465 467.885986 C 1010.662781 463.145996 1019.924316 460.776001 1030.411255 460.776001 C 1040.467529 460.776001 1049.536255 463.114502 1057.61792 467.791565 C 1065.699463 472.468628 1072.455811 479.029785 1077.887085 487.47522 C 1083.318481 495.920654 1086.996826 505.883301 1088.922241 517.363525 Z M 1008.98114 517.363525 C 1008.98114 523.631714 1010.271301 529.163696 1012.851807 533.959778 C 1015.43219 538.755859 1018.991089 542.516296 1023.528503 545.241333 C 1028.065918 547.966309 1033.273926 549.328735 1039.15271 549.328735 C 1045.157349 549.328735 1050.771484 547.966309 1055.995239 545.241333 C 1061.219116 542.516296 1065.838501 538.755859 1069.85376 533.959778 C 1073.869019 529.163696 1076.971069 523.631714 1079.160156 517.363525 C 1076.971069 511.095337 1073.869019 505.553955 1069.85376 500.739227 C 1065.838501 495.9245 1061.219116 492.154724 1055.995239 489.429688 C 1050.771484 486.704712 1045.157349 485.342224 1039.15271 485.342224 C 1033.273926 485.342224 1028.065918 486.704712 1023.528503 489.429688 C 1018.991089 492.154724 1015.43219 495.9245 1012.851807 500.739227 C 1010.271301 505.553955 1008.98114 511.095337 1008.98114 517.363525 Z M 957.152161 429.415588 L 957.152161 571.024414 L 919.879517 571.024414 L 919.879517 443.426025 L 928.302307 444.255005 L 873.393494 571.024414 L 833.858032 571.024414 L 778.949219 444.670959 L 787.372009 443.726929 L 787.372009 571.024414 L 750.099365 571.024414 L 750.099365 429.415588 L 810.557495 429.415588 L 861.309509 550.972046 L 846.24292 550.972046 L 896.694031 429.415588 Z"/>
        <linearGradient id="linearGradient1" x1="1285.109186" y1="442.086914" x2="1383.911258" y2="558.353089" gradientUnits="userSpaceOnUse">
            <stop offset="0" stop-color="#ff8a29" stop-opacity="1"/>
            <stop offset="0.097479" stop-color="#ff4747" stop-opacity="1"/>
            <stop offset="0.865379" stop-color="#8b5cf6" stop-opacity="1"/>
            <stop offset="1" stop-color="#1466c8" stop-opacity="1"/>
        </linearGradient>
        <filter id="filter1" x="0" y="0" width="1500" height="1000" filterUnits="userSpaceOnUse" primitiveUnits="userSpaceOnUse" color-interpolation-filters="sRGB">
            <feFlood flood-color="#ffffff" flood-opacity="0.5"/>
            <feComposite in2="SourceGraphic" operator="out"/>
            <feGaussianBlur stdDeviation="6.663946"/>
            <feOffset dx="0" dy="0"/>
            <feComposite in2="SourceGraphic" operator="atop"/>
        </filter>
        <path id="Forma" fill="url(#linearGradient1)" stroke="none" filter="url(#filter1)" d="M 1334.510254 426.016968 C 1359.307617 426.016968 1378.157104 429.698792 1391.059448 437.062439 C 1403.961548 444.426147 1410.412598 454.65332 1410.412598 467.744385 C 1410.412598 479.199036 1404.968628 487.695435 1394.080322 493.233948 C 1383.192139 498.772461 1368.055908 501.101135 1348.671143 500.220001 L 1348.671143 496.632568 C 1369.188843 494.744476 1385.206177 496.758423 1396.723755 502.67453 C 1408.241333 508.590668 1414 518.157043 1414 531.373901 C 1414 545.471985 1407.265747 556.171204 1393.797119 563.471924 C 1380.328491 570.772705 1360.566406 574.423035 1334.510254 574.423035 C 1308.454102 574.423035 1288.692017 570.772705 1275.223389 563.471924 C 1261.754639 556.171204 1255.020386 545.471985 1255.020386 531.373901 C 1255.020386 518.157043 1260.779175 508.590668 1272.296753 502.67453 C 1283.814331 496.758423 1299.831665 494.744476 1320.349365 496.632568 L 1320.349365 500.220001 C 1300.9646 501.101135 1285.828369 498.772461 1274.940186 493.233948 C 1264.05188 487.695435 1258.607788 479.199036 1258.607788 467.744385 C 1258.607788 454.65332 1265.05896 444.426147 1277.96106 437.062439 C 1290.863281 429.698792 1309.712769 426.016968 1334.510254 426.016968 Z M 1334.510254 537.982361 C 1344.454346 537.982361 1351.975342 537.006836 1357.073242 535.055786 C 1362.171143 533.104736 1364.720093 530.304016 1364.720093 526.653625 C 1364.720093 523.003296 1362.171143 520.23407 1357.073242 518.345947 C 1351.975342 516.457825 1344.454346 515.513733 1334.510254 515.513733 C 1324.56604 515.513733 1317.045166 516.457825 1311.947266 518.345947 C 1306.849243 520.23407 1304.300293 523.003296 1304.300293 526.653625 C 1304.300293 530.304016 1306.849243 533.104736 1311.947266 535.055786 C 1317.045166 537.006836 1324.56604 537.982361 1334.510254 537.982361 Z M 1334.510254 483.604553 C 1340.552246 483.604553 1345.618652 483.195435 1349.709595 482.377258 C 1353.800537 481.559082 1356.884399 480.363281 1358.961426 478.789856 C 1361.03833 477.216431 1362.076782 475.296814 1362.076782 473.031128 C 1362.076782 469.632507 1359.748169 467.020569 1355.090698 465.195435 C 1350.43335 463.370239 1343.573242 462.457642 1334.510254 462.457642 C 1325.447266 462.457642 1318.587158 463.370239 1313.92981 465.195435 C 1309.272339 467.020569 1306.943726 469.632507 1306.943726 473.031128 C 1306.943726 475.296814 1307.982178 477.216431 1310.059204 478.789856 C 1312.136108 480.363281 1315.219971 481.559082 1319.310913 482.377258 C 1323.401855 483.195435 1328.468262 483.604553 1334.510254 483.604553 Z"/>
    </g>
    <linearGradient id="linearGradient2" x1="169.423599" y1="230.543357" x2="556.976401" y2="769.199516" gradientUnits="userSpaceOnUse">
        <stop offset="0" stop-color="#ff8a29" stop-opacity="1"/>
        <stop offset="0.097479" stop-color="#ff4747" stop-opacity="1"/>
        <stop offset="0.865379" stop-color="#8b5cf6" stop-opacity="1"/>
        <stop offset="1" stop-color="#1466c8" stop-opacity="1"/>
    </linearGradient>
    <filter id="filter2" x="0" y="0" width="1500" height="1000" filterUnits="userSpaceOnUse" primitiveUnits="userSpaceOnUse" color-interpolation-filters="sRGB">
        <feFlood flood-color="#ffffff" flood-opacity="0.598327"/>
        <feComposite in2="SourceGraphic" operator="out"/>
        <feGaussianBlur stdDeviation="14"/>
        <feOffset dx="0" dy="0"/>
        <feComposite in2="SourceGraphic" operator="atop"/>
    </filter>
    <path id="8" fill="url(#linearGradient2)" stroke="none" filter="url(#filter2)" d="M 363.200012 156.09198 C 451.440094 156.09198 520.43219 171.34137 570.178345 201.840454 C 619.924377 232.3396 644.797119 274.830383 644.797119 329.314209 C 644.797119 381.429199 620.812805 422.439453 572.843262 452.346436 C 524.873718 482.253235 457.658386 497.206512 371.194824 497.206512 L 371.194824 477.663513 C 468.318146 474.110168 543.232361 487.730957 595.939636 518.526123 C 648.646667 549.32135 675 593.736816 675 651.773926 C 675 711.58783 647.610413 758.520203 592.830444 792.572571 C 538.050476 826.624939 461.507721 843.650879 363.200012 843.650879 C 264.892181 843.650879 188.349457 826.624939 133.569534 792.572571 C 78.789574 758.520203 51.400002 711.58783 51.400002 651.773926 C 51.400002 593.736816 77.90126 549.17334 130.904541 518.082031 C 183.907837 486.990662 258.673981 473.517944 355.205078 477.663513 L 355.205078 497.206512 C 269.926086 497.206512 203.006729 482.253235 154.445007 452.346436 C 105.883331 422.439453 81.602852 381.429199 81.602852 329.314209 C 81.602852 274.830383 106.623558 232.3396 156.665787 201.840454 C 206.708008 171.34137 275.552032 156.09198 363.200012 156.09198 Z M 363.200012 800.123291 C 445.517883 800.123291 509.772308 786.946655 555.96521 760.593079 C 602.15802 734.239502 625.254028 697.966858 625.254028 651.773926 C 625.254028 603.804565 602.898254 567.976013 558.185913 544.287476 C 513.473694 520.598877 448.479004 508.754608 363.200012 508.754608 C 277.920898 508.754608 212.926208 520.894897 168.213959 545.175781 C 123.501663 569.456543 101.145851 604.988892 101.145851 651.773926 C 101.145851 697.966858 124.241943 734.239502 170.434738 760.593079 C 216.627594 786.946655 280.882019 800.123291 363.200012 800.123291 Z M 363.200012 465.227051 C 409.392792 465.227051 449.958923 459.897156 484.89975 449.237305 C 519.840332 438.577332 546.933838 423.180054 566.180847 403.044678 C 585.427856 382.909363 595.051208 358.332764 595.051208 329.314209 C 595.051208 289.04364 574.472046 257.360535 533.313049 234.264038 C 492.154083 211.167725 435.450256 199.619629 363.200012 199.619629 C 290.949646 199.619629 234.24588 211.167725 193.086884 234.264038 C 151.927902 257.360535 131.348709 289.04364 131.348709 329.314209 C 131.348709 358.332764 141.120148 382.909363 160.663254 403.044678 C 180.206345 423.180054 207.29985 438.577332 241.944427 449.237305 C 276.58905 459.897156 317.007141 465.227051 363.200012 465.227051 Z"/>
</svg>
