<?xml version="1.0" encoding="UTF-8"?>
<!-- Generated by Pixelmator Pro 4.2 -->
<svg width="1500" height="335" viewBox="0 0 1500 335" xmlns="http://www.w3.org/2000/svg">
    <g id="Gruppo-copia">
        <path id="Mas8" fill="#ffffff" stroke="none" d="M 1107.744507 258.018585 C 1107.744507 273.233917 1103.087646 286.529358 1093.77356 297.905334 C 1084.459351 309.281281 1070.915161 318.097534 1053.140259 324.35434 C 1035.365356 330.611115 1013.893372 333.739441 988.72406 333.739441 C 962.701538 333.739441 939.843323 330.113434 920.148621 322.861237 C 900.453979 315.60907 885.061279 305.441925 873.969666 292.359589 C 862.878052 279.277252 856.905701 264.13324 856.052551 246.927032 L 895.939392 246.927032 C 897.645752 257.876434 902.622742 267.545898 910.870178 275.935608 C 919.117859 284.325378 929.960449 290.830963 943.398193 295.452454 C 956.83606 300.073944 972.015747 302.384583 988.937256 302.384583 C 1013.822266 302.384583 1033.303467 298.616394 1047.381104 291.079773 C 1061.458862 283.543274 1068.497681 273.162842 1068.497681 259.938232 C 1068.497681 249.842072 1063.911743 242.305634 1054.739868 237.328659 C 1045.567993 232.351624 1028.61084 228.583389 1003.868347 226.023834 L 957.582458 221.331299 C 934.546265 219.056091 916.131531 214.861237 902.338318 208.746658 C 888.544922 202.63208 878.626648 194.95343 872.583252 185.710464 C 866.539795 176.467499 863.517944 166.087082 863.517944 154.568909 C 863.517944 139.069153 868.281555 125.986984 877.809082 115.321991 C 887.336365 104.657074 900.631775 96.516251 917.695801 90.899384 C 934.759583 85.282501 954.525024 82.474136 976.992676 82.474136 C 1000.882324 82.474136 1022.17627 85.922409 1040.875488 92.819107 C 1059.574829 99.71579 1074.469971 109.243027 1085.561401 121.401031 C 1096.653076 133.559113 1102.767578 147.672211 1103.905151 163.740723 L 1064.018433 163.740723 C 1062.738525 154.639969 1058.543823 146.321411 1051.433716 138.784821 C 1044.32373 131.248291 1034.441162 125.204865 1021.7854 120.654449 C 1009.129578 116.104111 993.558899 113.828979 975.072998 113.828979 C 952.178894 113.828979 934.439819 117.099503 921.855164 123.640625 C 909.270508 130.181839 902.97821 139.709061 902.97821 152.222626 C 902.97821 161.32338 907.101929 168.575485 915.349487 173.979004 C 923.597046 179.382614 938.243408 183.22197 959.28894 185.497192 L 1012.186829 190.829636 C 1036.36084 193.246979 1055.415283 197.299622 1069.35083 202.98764 C 1083.286377 208.675598 1093.169189 216.069824 1098.999268 225.170654 C 1104.829346 234.271408 1107.744507 245.220581 1107.744507 258.018585 Z M 746.804199 328.193695 L 736.519226 239.501633 L 747.997314 206.953674 L 736.519226 174.832275 L 746.804199 85.586914 L 820.605408 85.586914 L 806.527649 206.827011 L 820.605408 328.193695 Z M 765.527771 206.953674 C 760.892944 232.522858 752.511047 254.897842 740.381958 274.079285 C 728.252747 293.260651 713.058716 308.155792 694.799438 318.765259 C 676.5401 329.374634 656.050354 334.679291 633.329529 334.679291 C 609.635498 334.679291 588.710327 329.325775 570.553162 318.618591 C 552.396057 307.911407 538.219727 292.945129 528.023499 273.71936 C 517.827393 254.4935 512.72937 232.238495 512.72937 206.953674 C 512.72937 181.388794 517.827393 159.043808 528.023499 139.917969 C 538.219727 120.792145 552.396057 105.87471 570.553162 95.165375 C 588.710327 84.455887 609.635498 79.101303 633.329529 79.101303 C 656.050354 79.101303 676.5401 84.384827 694.799438 94.952026 C 713.058716 105.519226 728.323853 120.343369 740.595215 139.424713 C 752.866577 158.506149 761.177368 181.015533 765.527771 206.953674 Z M 584.910889 206.953674 C 584.910889 221.115784 587.825867 233.614731 593.656067 244.450806 C 599.486206 255.286865 607.5271 263.783173 617.778809 269.939941 C 628.030457 276.09671 639.797302 279.17511 653.07959 279.17511 C 666.646362 279.17511 679.330811 276.09671 691.133362 269.939941 C 702.935913 263.783173 713.372986 255.286865 722.444885 244.450806 C 731.516724 233.614731 738.525574 221.115784 743.471436 206.953674 C 738.525574 192.791489 731.516724 180.271408 722.444885 169.393143 C 713.372986 158.514877 702.935913 149.997513 691.133362 143.840668 C 679.330811 137.683899 666.646362 134.605499 653.07959 134.605499 C 639.797302 134.605499 628.030457 137.683899 617.778809 143.840668 C 607.5271 149.997513 599.486206 158.514877 593.656067 169.393143 C 587.825867 180.271408 584.910889 192.791489 584.910889 206.953674 Z M 467.809723 8.246307 L 467.809723 328.193695 L 383.596924 328.193695 L 383.596924 39.901093 L 402.627136 41.774109 L 278.567566 328.193695 L 189.242249 328.193695 L 65.18264 42.713989 L 84.21283 40.580994 L 84.21283 328.193695 L -0 328.193695 L -0 8.246307 L 136.597565 8.246307 L 251.265366 282.887817 L 217.224319 282.887817 L 331.21225 8.246307 Z"/>
        <linearGradient id="linearGradient1" x1="1208.787416" y1="36.875601" x2="1432.018272" y2="299.564401" gradientUnits="userSpaceOnUse">
            <stop offset="0" stop-color="#ff8a29" stop-opacity="1"/>
            <stop offset="0.097479" stop-color="#ff4747" stop-opacity="1"/>
            <stop offset="0.865379" stop-color="#8b5cf6" stop-opacity="1"/>
            <stop offset="1" stop-color="#1466c8" stop-opacity="1"/>
        </linearGradient>
        <filter id="filter1" x="0" y="0" width="1500" height="335" filterUnits="userSpaceOnUse" primitiveUnits="userSpaceOnUse" color-interpolation-filters="sRGB">
            <feFlood flood-color="#ffffff" flood-opacity="1"/>
            <feComposite in2="SourceGraphic" operator="out"/>
            <feGaussianBlur stdDeviation="14"/>
            <feOffset dx="0" dy="0"/>
            <feComposite in2="SourceGraphic" operator="atop"/>
        </filter>
        <path id="Forma" fill="url(#linearGradient1)" stroke="none" filter="url(#filter1)" d="M 1320.402832 0.567566 C 1376.429443 0.567566 1419.017578 8.886139 1448.168579 25.523499 C 1477.319458 42.160767 1491.894775 65.267883 1491.894775 94.845428 C 1491.894775 120.725739 1479.594604 139.922348 1454.994019 152.435913 C 1430.393433 164.949478 1396.195068 170.210785 1352.397583 168.220001 L 1352.397583 160.114639 C 1398.754639 155.848724 1434.943848 160.398987 1460.966431 173.765732 C 1486.989014 187.132492 1500 208.746506 1500 238.608398 C 1500 270.461151 1484.78479 294.634735 1454.354126 311.129883 C 1423.923462 327.625 1379.27356 335.872437 1320.402832 335.872437 C 1261.532349 335.872437 1216.882324 327.625 1186.45166 311.129883 C 1156.020874 294.634735 1140.805664 270.461151 1140.805664 238.608398 C 1140.805664 208.746506 1153.816772 187.132492 1179.839355 173.765732 C 1205.861816 160.398987 1242.051025 155.848724 1288.408081 160.114639 L 1288.408081 168.220001 C 1244.610596 170.210785 1210.412231 164.949478 1185.811768 152.435913 C 1161.211182 139.922348 1148.911011 120.725739 1148.911011 94.845428 C 1148.911011 65.267883 1163.48645 42.160767 1192.637207 25.523499 C 1221.788086 8.886139 1264.376221 0.567566 1320.402832 0.567566 Z M 1320.402832 253.539307 C 1342.870361 253.539307 1359.862915 251.335236 1371.381104 246.927032 C 1382.899292 242.518906 1388.658325 236.191055 1388.658325 227.943481 C 1388.658325 219.695923 1382.899292 213.439285 1371.381104 209.173279 C 1359.862915 204.907288 1342.870361 202.774292 1320.402832 202.774292 C 1297.935303 202.774292 1280.942749 204.907288 1269.424561 209.173279 C 1257.906372 213.439285 1252.147339 219.695923 1252.147339 227.943481 C 1252.147339 236.191055 1257.906372 242.518906 1269.424561 246.927032 C 1280.942749 251.335236 1297.935303 253.539307 1320.402832 253.539307 Z M 1320.402832 130.679535 C 1334.054077 130.679535 1345.500854 129.755203 1354.743896 127.906616 C 1363.986816 126.058044 1370.95459 123.356277 1375.647095 119.801346 C 1380.339722 116.246323 1382.685913 111.909256 1382.685913 106.790146 C 1382.685913 99.111343 1377.424683 93.210129 1366.901978 89.086334 C 1356.37915 84.962555 1340.879517 82.900696 1320.402832 82.900696 C 1299.926147 82.900696 1284.426636 84.962555 1273.903931 89.086334 C 1263.381104 93.210129 1258.119751 99.111343 1258.119751 106.790146 C 1258.119751 111.909256 1260.466064 116.246323 1265.158691 119.801346 C 1269.851318 123.356277 1276.818848 126.058044 1286.06189 127.906616 C 1295.30481 129.755203 1306.751709 130.679535 1320.402832 130.679535 Z"/>
    </g>
</svg>
